<mxfile host="app.diagrams.net" modified="2023-10-06T17:12:02.350Z" agent="Mozilla/5.0 (Windows NT 10.0; Win64; x64; rv:109.0) Gecko/20100101 Firefox/118.0" etag="QUdOk8P3X-iFfaiC2Pdx" version="22.0.3" type="device">
  <diagram name="Seite-1" id="tFdaNgNejJl_n8ksysOp">
    <mxGraphModel dx="1050" dy="566" grid="1" gridSize="10" guides="1" tooltips="1" connect="1" arrows="1" fold="1" page="1" pageScale="1" pageWidth="827" pageHeight="1169" math="0" shadow="0">
      <root>
        <mxCell id="0" />
        <mxCell id="1" parent="0" />
        <mxCell id="YRpujRavWqYNDhnXGuo--3" value="" style="rounded=0;whiteSpace=wrap;html=1;strokeColor=none;fillColor=#E6E6E6;" parent="1" vertex="1">
          <mxGeometry x="40" y="100" width="270" height="240" as="geometry" />
        </mxCell>
        <mxCell id="YRpujRavWqYNDhnXGuo--1" value="" style="rounded=0;whiteSpace=wrap;html=1;fillColor=#006666;strokeColor=none;opacity=20;" parent="1" vertex="1">
          <mxGeometry x="50" y="190" width="160" height="60" as="geometry" />
        </mxCell>
        <mxCell id="jvjZXn_J_oO0lPrDbSM7-1" value="Objektorientierte Modellierung" style="rounded=0;whiteSpace=wrap;html=1;shadow=1;" parent="1" vertex="1">
          <mxGeometry x="250" y="40" width="190" height="40" as="geometry" />
        </mxCell>
        <mxCell id="jvjZXn_J_oO0lPrDbSM7-2" value="OOA" style="rounded=0;whiteSpace=wrap;html=1;shadow=1;" parent="1" vertex="1">
          <mxGeometry x="160" y="120" width="80" height="40" as="geometry" />
        </mxCell>
        <mxCell id="jvjZXn_J_oO0lPrDbSM7-3" value="&lt;div&gt;OOD&lt;/div&gt;" style="rounded=0;whiteSpace=wrap;html=1;shadow=1;" parent="1" vertex="1">
          <mxGeometry x="440" y="130" width="80" height="40" as="geometry" />
        </mxCell>
        <mxCell id="jvjZXn_J_oO0lPrDbSM7-4" value="Realweltmodellierung&lt;br&gt;(DomÃ¤nenmodell)" style="rounded=0;whiteSpace=wrap;html=1;shadow=1;" parent="1" vertex="1">
          <mxGeometry x="60" y="200" width="140" height="40" as="geometry" />
        </mxCell>
        <mxCell id="jvjZXn_J_oO0lPrDbSM7-5" value="Modellierung der Anforderungen" style="rounded=0;whiteSpace=wrap;html=1;shadow=1;" parent="1" vertex="1">
          <mxGeometry x="160" y="280" width="120" height="40" as="geometry" />
        </mxCell>
        <mxCell id="jvjZXn_J_oO0lPrDbSM7-6" value="&lt;div&gt;...&lt;/div&gt;" style="rounded=0;whiteSpace=wrap;html=1;shadow=1;" parent="1" vertex="1">
          <mxGeometry x="230" y="190" width="60" height="40" as="geometry" />
        </mxCell>
        <mxCell id="jvjZXn_J_oO0lPrDbSM7-7" value="Softwarekomponenten-&lt;br&gt;Modelle" style="rounded=0;whiteSpace=wrap;html=1;shadow=1;" parent="1" vertex="1">
          <mxGeometry x="330" y="220" width="150" height="40" as="geometry" />
        </mxCell>
        <mxCell id="jvjZXn_J_oO0lPrDbSM7-8" value="Modellierung von Softwareobjekten" style="rounded=0;whiteSpace=wrap;html=1;shadow=1;" parent="1" vertex="1">
          <mxGeometry x="440" y="280" width="120" height="40" as="geometry" />
        </mxCell>
        <mxCell id="jvjZXn_J_oO0lPrDbSM7-9" value="&lt;div&gt;...&lt;/div&gt;" style="rounded=0;whiteSpace=wrap;html=1;shadow=1;" parent="1" vertex="1">
          <mxGeometry x="506" y="210" width="60" height="40" as="geometry" />
        </mxCell>
        <mxCell id="jvjZXn_J_oO0lPrDbSM7-10" value="" style="endArrow=none;html=1;rounded=0;exitX=0.25;exitY=1;exitDx=0;exitDy=0;entryX=0.5;entryY=0;entryDx=0;entryDy=0;" parent="1" source="jvjZXn_J_oO0lPrDbSM7-2" target="jvjZXn_J_oO0lPrDbSM7-4" edge="1">
          <mxGeometry width="50" height="50" relative="1" as="geometry">
            <mxPoint x="170" y="420" as="sourcePoint" />
            <mxPoint x="220" y="370" as="targetPoint" />
          </mxGeometry>
        </mxCell>
        <mxCell id="jvjZXn_J_oO0lPrDbSM7-11" value="" style="endArrow=none;html=1;rounded=0;exitX=0.5;exitY=1;exitDx=0;exitDy=0;entryX=0.5;entryY=0;entryDx=0;entryDy=0;" parent="1" source="jvjZXn_J_oO0lPrDbSM7-2" target="jvjZXn_J_oO0lPrDbSM7-5" edge="1">
          <mxGeometry width="50" height="50" relative="1" as="geometry">
            <mxPoint x="430" y="320" as="sourcePoint" />
            <mxPoint x="480" y="270" as="targetPoint" />
          </mxGeometry>
        </mxCell>
        <mxCell id="jvjZXn_J_oO0lPrDbSM7-12" value="" style="endArrow=none;html=1;rounded=0;exitX=0.75;exitY=1;exitDx=0;exitDy=0;entryX=0.5;entryY=0;entryDx=0;entryDy=0;" parent="1" source="jvjZXn_J_oO0lPrDbSM7-2" target="jvjZXn_J_oO0lPrDbSM7-6" edge="1">
          <mxGeometry width="50" height="50" relative="1" as="geometry">
            <mxPoint x="430" y="320" as="sourcePoint" />
            <mxPoint x="480" y="270" as="targetPoint" />
          </mxGeometry>
        </mxCell>
        <mxCell id="jvjZXn_J_oO0lPrDbSM7-13" value="" style="endArrow=none;html=1;rounded=0;entryX=0.25;entryY=1;entryDx=0;entryDy=0;exitX=0.5;exitY=0;exitDx=0;exitDy=0;" parent="1" source="jvjZXn_J_oO0lPrDbSM7-2" target="jvjZXn_J_oO0lPrDbSM7-1" edge="1">
          <mxGeometry width="50" height="50" relative="1" as="geometry">
            <mxPoint x="390" y="420" as="sourcePoint" />
            <mxPoint x="440" y="370" as="targetPoint" />
          </mxGeometry>
        </mxCell>
        <mxCell id="jvjZXn_J_oO0lPrDbSM7-15" value="" style="endArrow=none;html=1;rounded=0;entryX=0.75;entryY=1;entryDx=0;entryDy=0;exitX=0.5;exitY=0;exitDx=0;exitDy=0;" parent="1" source="jvjZXn_J_oO0lPrDbSM7-3" target="jvjZXn_J_oO0lPrDbSM7-1" edge="1">
          <mxGeometry width="50" height="50" relative="1" as="geometry">
            <mxPoint x="430" y="320" as="sourcePoint" />
            <mxPoint x="480" y="270" as="targetPoint" />
          </mxGeometry>
        </mxCell>
        <mxCell id="jvjZXn_J_oO0lPrDbSM7-16" value="" style="endArrow=none;html=1;rounded=0;entryX=0.25;entryY=1;entryDx=0;entryDy=0;exitX=0.5;exitY=0;exitDx=0;exitDy=0;" parent="1" source="jvjZXn_J_oO0lPrDbSM7-7" target="jvjZXn_J_oO0lPrDbSM7-3" edge="1">
          <mxGeometry width="50" height="50" relative="1" as="geometry">
            <mxPoint x="206" y="490" as="sourcePoint" />
            <mxPoint x="256" y="440" as="targetPoint" />
          </mxGeometry>
        </mxCell>
        <mxCell id="jvjZXn_J_oO0lPrDbSM7-17" value="" style="endArrow=none;html=1;rounded=0;entryX=0.5;entryY=1;entryDx=0;entryDy=0;exitX=0.5;exitY=0;exitDx=0;exitDy=0;" parent="1" source="jvjZXn_J_oO0lPrDbSM7-8" target="jvjZXn_J_oO0lPrDbSM7-3" edge="1">
          <mxGeometry width="50" height="50" relative="1" as="geometry">
            <mxPoint x="396" y="510" as="sourcePoint" />
            <mxPoint x="446" y="460" as="targetPoint" />
          </mxGeometry>
        </mxCell>
        <mxCell id="jvjZXn_J_oO0lPrDbSM7-18" value="" style="endArrow=none;html=1;rounded=0;entryX=0.75;entryY=1;entryDx=0;entryDy=0;exitX=0.5;exitY=0;exitDx=0;exitDy=0;" parent="1" source="jvjZXn_J_oO0lPrDbSM7-9" target="jvjZXn_J_oO0lPrDbSM7-3" edge="1">
          <mxGeometry width="50" height="50" relative="1" as="geometry">
            <mxPoint x="286" y="490" as="sourcePoint" />
            <mxPoint x="336" y="440" as="targetPoint" />
          </mxGeometry>
        </mxCell>
      </root>
    </mxGraphModel>
  </diagram>
</mxfile>
